<svg width="250" height="250" viewBox="0 0 250 250" fill="none" xmlns="http://www.w3.org/2000/svg">
<path d="M237.5 212.5C237.5 226.306 226.306 237.5 212.5 237.5H37.5C23.6937 237.5 12.5 226.306 12.5 212.5V37.5C12.5 23.6937 23.6937 12.5 37.5 12.5H212.5C226.306 12.5 237.5 23.6937 237.5 37.5V212.5Z" fill="#77B255"/>
<path d="M195.5 52.2626C188.275 47.5688 178.6 49.6251 173.888 56.8626L105.85 161.731L74.4187 132.669C68.0812 126.806 58.1937 127.2 52.3375 133.531C46.4812 139.869 46.8687 149.756 53.2062 155.613L98.2625 197.275C101.262 200.056 105.075 201.431 108.863 201.431C113.069 201.431 118.45 199.669 121.981 194.313C124.056 191.15 200.106 73.8751 200.106 73.8751C204.8 66.6313 202.738 56.9563 195.5 52.2626V52.2626Z" fill="white"/>
</svg>
